<svg width="86" height="59" viewBox="0 0 86 59" fill="none" xmlns="http://www.w3.org/2000/svg">
<g clip-path="url(#clip0_28_64)">
<path d="M1.67712 0H68.3846C68.8273 0 69.2701 0.146766 69.5652 0.440298C69.8604 0.733831 70.1556 1.17413 70.1556 1.61443V11.5945V12.9154H68.8273H48.4609V42.2687V43.5896H47.1326H43.8858H26.3235H1.67712C1.23437 43.5896 0.791625 43.4428 0.496459 43.1493C0.201294 42.8557 0.0537109 42.4154 0.0537109 41.9751V1.61443C0.0537109 1.17413 0.201294 0.733831 0.496459 0.440298C0.791625 0.146766 1.23437 0 1.67712 0ZM67.4991 2.64179H2.7102V40.9478H26.3235H43.8858H45.8044V11.8881C45.8044 11.4478 45.952 11.0075 46.2471 10.7139C46.5423 10.4204 46.9851 10.2736 47.4278 10.2736H67.4991V2.64179Z" fill="#2C318D"/>
<path d="M45.8047 57.3856V12.0348C45.8047 11.5945 45.9523 11.1542 46.2474 11.0075C46.5426 10.7139 46.9854 10.4204 47.4281 10.4204H75.0261C75.4688 10.4204 75.9116 10.7139 76.2067 11.0075C76.5019 11.1542 76.6495 11.5945 76.6495 12.0348V29.0597V30.2338H75.3213H68.2373V57.5324H67.2042V59H47.4281C46.9854 59 46.5426 58.8532 46.2474 58.5597C45.9523 58.2662 45.8047 57.8259 45.8047 57.3856ZM48.4612 13.0622V56.3582H65.7284V29.2065C65.7284 28.7662 65.8759 28.4726 66.1711 28.1791C66.3187 27.8856 66.7614 27.7388 67.2042 27.7388H73.993V13.0622H48.4612ZM68.2373 57.5324C68.0897 57.3856 67.9421 56.9453 67.9421 56.7985L67.2042 57.5324H68.2373ZM67.9421 56.7985L67.2042 57.5324L67.9421 56.7985ZM67.2042 57.5324L67.9421 56.7985C67.7945 56.6518 67.3518 56.505 67.2042 56.505V57.5324Z" fill="#2C318D"/>
<path d="M65.7285 57.5323V29.2064C65.7285 28.7661 65.8761 28.3258 66.1713 28.1791C66.3188 27.8855 66.7616 27.7388 67.2043 27.7388H84.4715C84.7667 27.7388 85.2094 27.8855 85.5046 28.1791C85.7998 28.3258 85.9473 28.7661 85.9473 29.2064V57.5323C85.9473 57.9726 85.7998 58.2661 85.5046 58.5597C85.2094 58.8532 84.7667 59 84.4715 59H67.2043C66.7616 59 66.3188 58.8532 66.1713 58.5597C65.8761 58.2661 65.7285 57.9726 65.7285 57.5323ZM68.2374 30.2338V56.3582H83.2909V30.2338H68.2374Z" fill="#FF9F0E"/>
<path d="M26.3232 41.2412H43.8856H44.9187V42.2686V53.1293H47.1324H48.1655V54.1566V57.3855H47.4276V58.7064H19.682C18.9441 58.7064 18.2062 58.4129 17.7634 57.8258C17.3207 57.3855 16.8779 56.6517 16.8779 55.9178C16.8779 55.184 17.3207 54.4502 17.7634 54.0099C18.2062 53.4228 18.9441 53.1293 19.682 53.1293H25.2902V42.2686V41.2412H26.3232ZM42.8525 43.2959H27.3563V54.1566V55.184H26.3232H19.682C19.5344 55.184 19.3868 55.3308 19.2393 55.4775C19.0917 55.4775 19.0917 55.7711 19.0917 55.9178C19.0917 56.0646 19.0917 56.3581 19.2393 56.3581C19.3868 56.5049 19.5344 56.6517 19.682 56.6517H46.0993V55.184H43.8856H42.8525V54.1566V43.2959ZM48.1655 57.3855C48.0179 57.2387 47.8703 56.9452 47.8703 56.9452L47.4276 57.3855H48.1655ZM47.8703 56.9452C47.7227 56.9452 47.4276 56.7984 47.4276 56.6517V57.3855L47.8703 56.9452Z" fill="#2C318D"/>
<path d="M75.7639 55.6243C76.579 55.6243 77.2397 54.9672 77.2397 54.1566C77.2397 53.3461 76.579 52.689 75.7639 52.689C74.9488 52.689 74.2881 53.3461 74.2881 54.1566C74.2881 54.9672 74.9488 55.6243 75.7639 55.6243Z" fill="#FF9F0E"/>
<path d="M61.1526 54.8904C61.9677 54.8904 62.6284 54.2333 62.6284 53.4227C62.6284 52.6122 61.9677 51.9551 61.1526 51.9551C60.3375 51.9551 59.6768 52.6122 59.6768 53.4227C59.6768 54.2333 60.3375 54.8904 61.1526 54.8904Z" fill="#2C318D"/>
</g>
<defs>
<clipPath id="clip0_28_64">
<rect width="86" height="59" fill="white"/>
</clipPath>
</defs>
</svg>
