<svg width="71" height="53" viewBox="0 0 71 53" fill="none" xmlns="http://www.w3.org/2000/svg">
<path d="M18.0368 0H52.3916H53.5368V1.14516V51.8185V52.9637H52.3916H18.0368H16.8916V51.8185V1.14516V0H18.0368ZM51.2464 2.29032H19.1819V50.6734H51.2464V2.29032Z" fill="#2C318D"/>
<path d="M23.4756 6.58447H45.8062V8.01592H23.4756V6.58447Z" fill="#2C318D"/>
<path d="M28.6289 10.5928H40.6531V12.0242H28.6289V10.5928Z" fill="#2C318D"/>
<path d="M35.5 18.0361H47.5242V19.4676H35.5V18.0361Z" fill="#2C318D"/>
<path d="M35.5 22.6167H47.5242V24.0482H35.5V22.6167Z" fill="#2C318D"/>
<path d="M35.5 27.1978H47.5242V28.6292H35.5V27.1978Z" fill="#2C318D"/>
<path d="M23.4756 32.6372H45.8062V34.0687H23.4756V32.6372Z" fill="#2C318D"/>
<path d="M23.4756 37.5039H45.8062V38.6491H23.4756V37.5039Z" fill="#2C318D"/>
<path d="M23.4756 41.7983H45.8062V43.2298H23.4756V41.7983Z" fill="#2C318D"/>
<path d="M23.4756 46.3789H45.8062V47.8104H23.4756V46.3789Z" fill="#2C318D"/>
<path d="M54.9682 6.87109L69.8553 12.3106L71.0005 12.5969L70.4279 13.7421L56.1134 51.5324L54.1094 50.6735L68.1376 14.0283L54.3957 8.87513L54.9682 6.87109Z" fill="#2C318D"/>
<path d="M54.682 13.4556L62.9844 16.6048L62.4118 17.7499L54.1094 14.6007L54.682 13.4556Z" fill="#2C318D"/>
<path d="M55.5404 18.895L61.5524 21.4716L60.9799 22.6168L54.9678 20.3265L55.5404 18.895Z" fill="#2C318D"/>
<path d="M54.9681 24.6211L59.5487 26.6251L58.9762 27.7703L54.3955 26.0525L54.9681 24.6211Z" fill="#2C318D"/>
<path d="M54.9681 30.3467L57.5447 31.2056L57.2584 32.637L54.3955 31.4918L54.9681 30.3467Z" fill="#2C318D"/>
<path d="M54.3948 35.2139L55.8263 36.0727L55.2537 37.2179L53.8223 36.359L54.3948 35.2139Z" fill="#2C318D"/>
<path d="M16.6048 8.87513L2.8629 14.0283L16.8911 50.6735L14.6008 51.5324L0.28629 13.7421L0 12.5969L1.14516 12.3106L15.746 6.87109L16.6048 8.87513Z" fill="#2C318D"/>
<path d="M16.8906 14.6007L8.58821 17.7499L8.01562 16.6048L16.318 13.4556L16.8906 14.6007Z" fill="#2C318D"/>
<path d="M16.0319 20.3265L10.0198 22.6168L9.44727 21.4716L15.4594 18.895L16.0319 20.3265Z" fill="#2C318D"/>
<path d="M16.3181 26.0525L12.0238 27.7703L11.4512 26.6251L15.7455 24.6211L16.3181 26.0525Z" fill="#2C318D"/>
<path d="M16.6052 31.4918L13.7423 32.637L13.4561 31.2056L16.0327 30.3467L16.6052 31.4918Z" fill="#2C318D"/>
<path d="M17.1779 36.359L15.7464 37.2179L15.1738 36.0727L16.319 35.2139L17.1779 36.359Z" fill="#2C318D"/>
<path d="M23.4759 17.4639H30.9194H31.7783V18.0364V27.7703V28.3429H30.9194H23.4759H22.9033V27.7703V18.0364V17.4639H23.4759ZM30.3469 18.8953H24.3348V26.9114H30.3469V18.8953Z" fill="#FF9F0E"/>
</svg>
