<svg width="53" height="58" viewBox="0 0 53 58" fill="none" xmlns="http://www.w3.org/2000/svg">
<path d="M1.09504 0.0830078H38.3263H39.4213V1.17805V11.4714C38.7643 11.2524 37.8883 11.0334 37.0123 11.0334V2.49209H2.40908V54.6159H37.0123V48.2646C37.8883 48.0456 38.7643 48.0456 39.4213 47.8266V55.9299V57.0249H38.3263H1.09504H0V55.9299V1.17805V0.0830078H1.09504Z" fill="#2C318D"/>
<path d="M9.19824 10.376H22.3387V11.909H9.19824V10.376Z" fill="#2C318D"/>
<path d="M9.19824 15.1943H19.9296V16.7274H9.19824V15.1943Z" fill="#2C318D"/>
<path d="M9.19824 20.2319H15.9875V21.546H9.19824V20.2319Z" fill="#2C318D"/>
<path fill-rule="evenodd" clip-rule="evenodd" d="M19.71 28.7725C19.71 30.5245 19.71 31.8386 20.148 33.3716C20.367 34.9047 21.024 36.4377 21.9 37.7518C22.5571 38.8468 23.4331 40.1609 24.5281 41.0369C24.7471 41.2559 24.7471 41.4749 24.9661 41.6939C27.8132 44.322 31.9744 46.0741 35.9165 46.0741C37.6686 46.0741 38.7636 45.855 40.2967 45.636C40.9537 45.417 41.3917 45.198 41.8297 44.979C42.9247 44.76 43.8008 44.322 44.6768 43.884C45.7718 43.227 46.6479 42.3509 47.5239 41.6939C47.7429 41.4749 47.9619 41.2559 48.1809 41.0369C48.3999 41.0369 48.3999 40.8179 48.6189 40.5989C48.8379 40.3799 48.8379 40.3799 49.057 40.1609C49.495 39.5038 49.933 38.8468 50.371 38.4088C51.247 37.0947 51.9041 35.7807 52.3421 34.2477C52.5611 33.5906 52.9991 31.8386 52.9991 30.5245V29.2105C52.9991 28.9915 52.9991 28.7725 52.7801 28.5535C52.7801 28.3345 52.5611 28.1154 52.3421 28.1154C51.685 27.6774 51.247 27.8964 50.809 28.3345C50.152 28.7725 50.371 29.8675 50.152 30.7435C49.933 33.5906 48.6189 36.6567 46.6479 38.6278C45.9909 39.2848 45.5528 39.7228 44.8958 40.1609C42.4867 42.1319 39.8586 43.227 36.1355 43.227C32.8504 43.227 29.7843 41.9129 27.3752 39.9418L26.4992 39.0658C25.6232 38.1898 24.9661 37.3138 24.3091 36.2187C22.5571 33.5906 21.9 29.4295 22.7761 26.1444C23.4331 23.9543 24.5281 21.5452 26.0612 20.0122L26.7182 19.3551C26.7182 19.1361 26.9372 19.1361 26.9372 19.1361C29.1273 16.7271 33.0694 15.413 36.1355 15.413C38.3256 15.413 40.7347 15.851 42.4867 16.9461C43.8008 17.3841 44.8958 18.2601 45.9909 19.1361C46.4289 19.5742 46.6479 19.7932 47.3049 19.7932C47.9619 19.7932 48.6189 19.1361 48.6189 18.4791C48.6189 17.6031 47.7429 17.1651 47.3049 16.5081C47.0859 16.5081 47.0859 16.5081 46.8669 16.289C44.4578 14.099 40.2967 12.5659 37.0115 12.5659C33.5074 12.5659 30.8793 13.2229 28.0322 14.756C26.7182 15.413 25.6232 16.5081 24.5281 17.3841L23.4331 18.4791C23.4331 18.6981 23.2141 18.9171 22.9951 19.1361C22.9951 19.3551 22.7761 19.3551 22.5571 19.5742C22.5571 19.7932 22.338 20.0122 22.338 20.2312C21.243 21.7642 20.586 23.5163 20.148 25.2683C19.929 26.3634 19.71 27.4584 19.71 28.7725Z" fill="#FF9F0E"/>
<path fill-rule="evenodd" clip-rule="evenodd" d="M35.6983 30.7433C35.4793 30.5243 33.7272 28.7722 33.2892 28.3342C32.8512 27.8962 32.1942 27.6772 31.5372 27.8962C31.0991 28.3342 30.6611 28.7722 30.6611 29.4293C30.8801 30.0863 31.3182 30.5243 31.7562 30.9623L34.1653 33.1524C35.2603 34.4664 35.9173 34.4664 37.2314 33.1524L43.3636 27.0202C44.8966 25.4871 43.5826 24.3921 42.7065 24.3921C41.8305 24.3921 41.3925 25.0491 40.7355 25.7061C40.0785 26.3632 35.9173 30.5243 35.6983 30.7433Z" fill="#FF9F0E"/>
</svg>
