<svg width="145" height="31" viewBox="0 0 145 31" fill="none" xmlns="http://www.w3.org/2000/svg">
<path d="M37.124 20H32.896V9.444H36.816C37.7587 9.45333 38.5147 9.66333 39.084 10.074C39.6627 10.4847 39.952 11.194 39.952 12.202C39.952 12.678 39.8633 13.1027 39.686 13.476C39.518 13.8493 39.2193 14.1433 38.79 14.358V14.372C39.546 14.4747 40.092 14.7687 40.428 15.254C40.7733 15.73 40.946 16.3367 40.946 17.074C40.946 18.1753 40.5493 18.9407 39.756 19.37C38.972 19.79 38.0947 20 37.124 20ZM35.64 15.632V17.9H35.99C35.9993 17.9093 36.0087 17.914 36.018 17.914C36.0367 17.914 36.0553 17.914 36.074 17.914C36.186 17.914 36.3027 17.914 36.424 17.914C36.5453 17.914 36.6667 17.9093 36.788 17.9C37.1333 17.872 37.4507 17.7833 37.74 17.634C38.0293 17.4847 38.174 17.2047 38.174 16.794C38.174 16.318 38.0153 16.01 37.698 15.87C37.3807 15.73 37.0353 15.6553 36.662 15.646C36.578 15.646 36.4893 15.646 36.396 15.646C36.312 15.646 36.228 15.646 36.144 15.646C36.1067 15.646 36.0693 15.646 36.032 15.646C35.9947 15.646 35.9573 15.646 35.92 15.646L35.64 15.632ZM35.64 11.544V13.588H35.948C35.9573 13.5973 35.9667 13.602 35.976 13.602C35.9947 13.602 36.0133 13.602 36.032 13.602C36.3773 13.5927 36.6947 13.5273 36.984 13.406C37.2827 13.2847 37.432 13.0093 37.432 12.58C37.432 12.1507 37.292 11.8753 37.012 11.754C36.732 11.6327 36.4287 11.5673 36.102 11.558C36.0553 11.558 36.0087 11.558 35.962 11.558C35.9247 11.558 35.8827 11.558 35.836 11.558L35.64 11.544ZM44.8626 8.38V20H42.3146V8.38H44.8626ZM50.3332 12.58C51.4906 12.5893 52.4986 12.93 53.3572 13.602C54.2252 14.2647 54.6592 15.2073 54.6592 16.43C54.6592 17.6433 54.2252 18.5813 53.3572 19.244C52.4986 19.9067 51.4906 20.238 50.3332 20.238C49.1852 20.238 48.1772 19.9113 47.3092 19.258C46.4412 18.5953 46.0072 17.6527 46.0072 16.43C46.0072 15.2073 46.4366 14.2647 47.2952 13.602C48.1632 12.93 49.1759 12.594 50.3332 12.594V12.58ZM50.3332 14.792C49.8199 14.8013 49.4186 14.9693 49.1292 15.296C48.8399 15.6133 48.6952 15.9913 48.6952 16.43C48.6952 16.8873 48.8399 17.27 49.1292 17.578C49.4186 17.886 49.8199 18.04 50.3332 18.04C50.8559 18.04 51.2572 17.886 51.5372 17.578C51.8266 17.27 51.9712 16.8873 51.9712 16.43C51.9712 15.9913 51.8266 15.6133 51.5372 15.296C51.2572 14.9693 50.8559 14.806 50.3332 14.806V14.792ZM60.9888 13V15.156C60.8021 15.0253 60.5968 14.9133 60.3728 14.82C60.1488 14.7173 59.9154 14.666 59.6728 14.666C59.1874 14.666 58.7721 14.834 58.4268 15.17C58.0908 15.506 57.9228 15.9213 57.9228 16.416C57.9228 16.9293 58.0908 17.354 58.4268 17.69C58.7628 18.0167 59.1921 18.18 59.7148 18.18C59.7614 18.18 59.8081 18.18 59.8548 18.18C59.9108 18.1707 59.9621 18.1613 60.0088 18.152C60.1861 18.124 60.3588 18.0727 60.5268 17.998C60.7041 17.914 60.8581 17.8113 60.9888 17.69V19.832C60.7088 19.972 60.4148 20.0747 60.1068 20.14C59.8081 20.2053 59.5048 20.238 59.1968 20.238C58.1328 20.238 57.2134 19.888 56.4388 19.188C55.6734 18.4787 55.2908 17.5827 55.2908 16.5C55.2908 15.3427 55.6781 14.4047 56.4528 13.686C57.2274 12.958 58.1794 12.594 59.3088 12.594C59.6074 12.594 59.8968 12.6313 60.1768 12.706C60.4661 12.7713 60.7368 12.874 60.9888 13.014V13ZM65.1243 8.38V15.408L67.7703 12.818H71.2563L67.6583 16.136L71.4803 20H67.9103L65.1243 17.074V20H62.5763V8.38H65.1243ZM79.159 10.032L78.067 12.16C77.815 11.9547 77.5303 11.7913 77.213 11.67C76.905 11.5393 76.583 11.474 76.247 11.474C76.2003 11.474 76.149 11.4787 76.093 11.488C76.037 11.488 75.981 11.4973 75.925 11.516C75.7103 11.5627 75.5143 11.656 75.337 11.796C75.1597 11.936 75.071 12.1227 75.071 12.356C75.071 12.58 75.155 12.762 75.323 12.902C75.491 13.0327 75.673 13.14 75.869 13.224C75.9437 13.252 76.0137 13.28 76.079 13.308C76.1537 13.3267 76.2237 13.3453 76.289 13.364L76.989 13.56C77.7263 13.784 78.3423 14.1107 78.837 14.54C79.341 14.96 79.593 15.5993 79.593 16.458C79.593 16.4953 79.593 16.5327 79.593 16.57C79.593 16.6073 79.593 16.6447 79.593 16.682C79.5743 17.1673 79.4857 17.6433 79.327 18.11C79.1683 18.5673 78.893 18.964 78.501 19.3C78.1463 19.608 77.745 19.8367 77.297 19.986C76.849 20.1353 76.3917 20.2287 75.925 20.266C75.8503 20.266 75.7757 20.266 75.701 20.266C75.6357 20.2753 75.5703 20.28 75.505 20.28C74.8423 20.28 74.1937 20.1773 73.559 19.972C72.9243 19.7573 72.3363 19.4633 71.795 19.09L72.971 16.864C73.3163 17.172 73.6897 17.4333 74.091 17.648C74.5017 17.8627 74.9403 17.97 75.407 17.97C75.4257 17.97 75.4443 17.97 75.463 17.97C75.4817 17.97 75.5003 17.97 75.519 17.97C75.827 17.9513 76.107 17.858 76.359 17.69C76.611 17.5127 76.737 17.2513 76.737 16.906C76.737 16.6447 76.6297 16.4347 76.415 16.276C76.2097 16.1173 75.9763 15.9913 75.715 15.898C75.603 15.8607 75.491 15.828 75.379 15.8C75.267 15.7627 75.1643 15.73 75.071 15.702C75.0523 15.6927 75.029 15.688 75.001 15.688C74.9823 15.6787 74.9637 15.6693 74.945 15.66C74.1143 15.4267 73.4517 15.128 72.957 14.764C72.4623 14.4 72.215 13.7187 72.215 12.72C72.215 11.6467 72.5557 10.788 73.237 10.144C73.9277 9.5 74.8003 9.178 75.855 9.178C76.0697 9.178 76.289 9.192 76.513 9.22C76.737 9.23867 76.961 9.276 77.185 9.332C77.5397 9.40667 77.885 9.50467 78.221 9.626C78.5663 9.74733 78.879 9.88733 79.159 10.046V10.032ZM83.628 14.918V20H81.08V14.918H80.254V12.818H81.08V10.662H83.628V12.818H85.07V14.918H83.628ZM93.7409 12.818V20H91.1929V19.202H91.1649C90.9595 19.538 90.6795 19.79 90.3249 19.958C89.9702 20.1167 89.6015 20.2053 89.2189 20.224C89.1815 20.2333 89.1442 20.238 89.1069 20.238C89.0695 20.238 89.0322 20.238 88.9949 20.238C87.9309 20.238 87.0582 19.86 86.3769 19.104C85.7049 18.3387 85.3689 17.4427 85.3689 16.416C85.3689 15.3893 85.7002 14.498 86.3629 13.742C87.0349 12.9767 87.9029 12.594 88.9669 12.594C89.0135 12.594 89.0602 12.594 89.1069 12.594C89.1535 12.594 89.2002 12.5987 89.2469 12.608C89.6109 12.636 89.9655 12.7293 90.3109 12.888C90.6655 13.0373 90.9595 13.252 91.1929 13.532V12.818H93.7409ZM89.6389 14.792C89.1255 14.8013 88.7242 14.9693 88.4349 15.296C88.1455 15.6133 88.0009 15.9913 88.0009 16.43C88.0009 16.8873 88.1455 17.27 88.4349 17.578C88.7242 17.886 89.1255 18.04 89.6389 18.04C90.1615 18.04 90.5629 17.886 90.8429 17.578C91.1322 17.27 91.2769 16.8873 91.2769 16.43C91.2769 15.9913 91.1322 15.6133 90.8429 15.296C90.5629 14.9693 90.1615 14.806 89.6389 14.806V14.792ZM98.2158 14.918V20H95.6678V14.918H94.8418V12.818H95.6678V10.662H98.2158V12.818H99.6578V14.918H98.2158ZM107.853 16.57V16.836H102.491C102.491 17.3587 102.626 17.76 102.897 18.04C103.167 18.3107 103.564 18.446 104.087 18.446C104.357 18.446 104.591 18.3947 104.787 18.292C104.992 18.1893 105.165 18.0213 105.305 17.788L107.755 17.774C107.549 18.6327 107.092 19.258 106.383 19.65C105.683 20.042 104.922 20.238 104.101 20.238C102.915 20.238 101.926 19.916 101.133 19.272C100.339 18.6187 99.9428 17.6713 99.9428 16.43C99.9428 15.2353 100.311 14.2973 101.049 13.616C101.795 12.9347 102.752 12.594 103.919 12.594C105.169 12.594 106.135 12.9533 106.817 13.672C107.507 14.3907 107.853 15.3613 107.853 16.584V16.57ZM102.533 15.366H105.487C105.421 15.03 105.249 14.7593 104.969 14.554C104.698 14.3487 104.39 14.246 104.045 14.246C103.671 14.246 103.345 14.344 103.065 14.54C102.785 14.7267 102.607 15.0067 102.533 15.38V15.366ZM111.568 12.818V13.714H111.596C111.894 13.322 112.23 13.0373 112.604 12.86C112.986 12.6827 113.406 12.594 113.864 12.594C114.386 12.594 114.858 12.706 115.278 12.93C115.707 13.1447 116.052 13.49 116.314 13.966C116.556 13.518 116.902 13.1773 117.35 12.944C117.798 12.7107 118.264 12.594 118.75 12.594C119.664 12.594 120.299 12.86 120.654 13.392C121.018 13.924 121.2 14.6053 121.2 15.436V20H118.652V16.57C118.652 16.57 118.652 16.5653 118.652 16.556C118.652 16.5467 118.652 16.5373 118.652 16.528C118.652 16.4347 118.652 16.332 118.652 16.22C118.652 16.108 118.647 15.996 118.638 15.884C118.61 15.5667 118.526 15.2773 118.386 15.016C118.255 14.7547 117.994 14.624 117.602 14.624C117.126 14.624 116.808 14.778 116.65 15.086C116.5 15.394 116.416 15.73 116.398 16.094C116.388 16.178 116.384 16.262 116.384 16.346C116.384 16.43 116.384 16.5093 116.384 16.584V20H113.836V16.57C113.836 16.4767 113.836 16.374 113.836 16.262C113.836 16.15 113.831 16.0333 113.822 15.912C113.794 15.576 113.705 15.268 113.556 14.988C113.406 14.708 113.122 14.568 112.702 14.568C112.282 14.568 111.997 14.708 111.848 14.988C111.698 15.268 111.61 15.576 111.582 15.912C111.572 16.0333 111.568 16.15 111.568 16.262C111.568 16.374 111.568 16.4813 111.568 16.584V20H109.02V12.818H111.568ZM130.247 16.57V16.836H124.885C124.885 17.3587 125.021 17.76 125.291 18.04C125.562 18.3107 125.959 18.446 126.481 18.446C126.752 18.446 126.985 18.3947 127.181 18.292C127.387 18.1893 127.559 18.0213 127.699 17.788L130.149 17.774C129.944 18.6327 129.487 19.258 128.777 19.65C128.077 20.042 127.317 20.238 126.495 20.238C125.31 20.238 124.321 19.916 123.527 19.272C122.734 18.6187 122.337 17.6713 122.337 16.43C122.337 15.2353 122.706 14.2973 123.443 13.616C124.19 12.9347 125.147 12.594 126.313 12.594C127.564 12.594 128.53 12.9533 129.211 13.672C129.902 14.3907 130.247 15.3613 130.247 16.584V16.57ZM124.927 15.366H127.881C127.816 15.03 127.643 14.7593 127.363 14.554C127.093 14.3487 126.785 14.246 126.439 14.246C126.066 14.246 125.739 14.344 125.459 14.54C125.179 14.7267 125.002 15.0067 124.927 15.38V15.366ZM133.962 12.818V13.742H133.99C134.289 13.3127 134.62 13.014 134.984 12.846C135.358 12.678 135.792 12.594 136.286 12.594C137.257 12.594 137.948 12.8693 138.358 13.42C138.778 13.9707 138.988 14.6893 138.988 15.576V20H136.44V16.5C136.44 16.4813 136.44 16.458 136.44 16.43C136.44 16.402 136.44 16.374 136.44 16.346C136.44 16.262 136.44 16.1733 136.44 16.08C136.44 15.9867 136.436 15.8933 136.426 15.8C136.408 15.5107 136.324 15.2447 136.174 15.002C136.025 14.75 135.731 14.624 135.292 14.624C134.779 14.624 134.429 14.792 134.242 15.128C134.056 15.4547 133.962 15.842 133.962 16.29V20H131.414V12.818H133.962ZM143.456 14.918V20H140.908V14.918H140.082V12.818H140.908V10.662H143.456V12.818H144.898V14.918H143.456Z" fill="#717171"/>
<path d="M15.5 0L28.9234 7.75V23.25L15.5 31L2.07661 23.25V7.75L15.5 0Z" fill="#2C318D"/>
<rect x="9" y="10" width="2" height="12" fill="white"/>
<rect x="13" y="18" width="2" height="4" fill="white"/>
<rect x="17" y="15" width="2" height="7" fill="white"/>
<rect x="21" y="17" width="2" height="5" fill="white"/>
</svg>
