<svg width="54" height="60" viewBox="0 0 54 60" fill="none" xmlns="http://www.w3.org/2000/svg">
<g clip-path="url(#clip0_31_80)">
<path fill-rule="evenodd" clip-rule="evenodd" d="M36.177 22.8401C33.2508 23.3704 31.1228 23.9008 28.7287 26.2876C24.7385 30.2655 25.2706 34.2434 25.2706 39.2821C25.2706 40.8733 25.5366 42.9949 24.7385 44.3209C24.2065 45.1164 23.1425 45.1164 22.0784 47.238C21.5464 48.2988 21.5464 50.6855 21.8124 52.2767H52.6696C52.9356 51.4811 52.9356 48.8292 52.6696 48.2988C52.6696 46.9728 51.8715 45.912 50.8075 45.1164C48.6794 43.7905 49.2114 42.9949 49.2114 39.8125H47.0834C47.0834 42.1993 47.0834 44.3209 48.4134 45.6468C49.2114 46.7076 49.4774 46.4424 50.2755 47.238C50.8075 48.0336 50.8075 49.0944 50.8075 50.1551H23.6745C23.6745 47.5032 24.2065 47.5032 25.5366 46.4424C26.6006 45.6468 27.3986 44.3209 27.3986 42.4645C27.3986 35.8346 25.8026 29.2047 33.2508 25.7572C34.5809 24.9616 36.443 24.6964 38.039 24.9616C39.1031 24.9616 40.4331 25.2268 41.4972 25.7572C41.7632 26.0224 42.0292 26.2876 42.2952 26.2876C43.0932 25.7572 43.3592 25.492 44.1573 24.9616C43.0932 23.9008 39.9011 23.1052 38.305 22.8401V19.6577H36.443C36.177 20.1881 36.177 22.3097 36.177 22.8401Z" fill="#2C318D"/>
<path fill-rule="evenodd" clip-rule="evenodd" d="M46.8175 25.7572C43.6253 26.0224 40.9652 28.9395 41.2313 32.9175C41.7633 36.0998 44.6894 38.7518 48.6795 38.2214C51.8717 37.9562 54.5318 35.039 53.9997 31.0611C53.7337 28.144 50.5416 25.2268 46.8175 25.7572Z" fill="#FF9F0E"/>
<path fill-rule="evenodd" clip-rule="evenodd" d="M42.8271 53.8677C42.2951 53.6025 41.497 53.6025 40.965 53.6025C40.699 54.9285 40.433 55.4589 39.901 56.2545C38.3049 57.5805 36.1768 57.5805 34.8468 56.2545C34.0488 55.4589 33.7827 54.9285 33.7827 53.6025H31.6547C31.3887 57.8457 36.9749 61.2932 41.231 57.5805C42.0291 56.7849 42.8271 55.1937 42.8271 53.8677Z" fill="#2C318D"/>
<path fill-rule="evenodd" clip-rule="evenodd" d="M47.6152 29.4698V30.0002H48.4133V35.5693H50.0093V28.9395L47.6152 29.4698Z" fill="white"/>
<path fill-rule="evenodd" clip-rule="evenodd" d="M44.4232 31.8568H42.8271V32.9176H44.4232V34.7739H45.7533V32.9176H47.3493V31.8568C46.8173 31.8568 46.2853 31.8568 45.7533 31.8568V30.2656H44.4232V31.8568Z" fill="white"/>
<path d="M0 58.3761V1.88957C0 1.35918 0.26601 0.828788 0.53202 0.563593C0.79803 0.298398 1.33005 0.0332031 1.86207 0.0332031H36.1773C36.7094 0.0332031 37.2414 0.298398 37.5074 0.563593C37.7734 0.828788 38.0394 1.35918 38.0394 1.88957V17.5361H34.8473V2.95035H2.92611V57.0501H30.0591V59.9673H1.86207C1.33005 59.9673 0.79803 59.9673 0.53202 59.4369C0.26601 59.1717 0 58.6413 0 58.3761Z" fill="#2C318D"/>
<path d="M18.887 54.3983C20.5031 54.3983 21.8132 53.0922 21.8132 51.4811C21.8132 49.87 20.5031 48.564 18.887 48.564C17.271 48.564 15.9609 49.87 15.9609 51.4811C15.9609 53.0922 17.271 54.3983 18.887 54.3983Z" fill="#2C318D"/>
</g>
<defs>
<clipPath id="clip0_31_80">
<rect width="54" height="60" fill="white"/>
</clipPath>
</defs>
</svg>
